<?xml version="1.0" encoding="utf-8"?>
<!-- Generator: Adobe Illustrator 24.2.3, SVG Export Plug-In . SVG Version: 6.00 Build 0)  -->
<svg version="1.1" id="Layer_1" xmlns="http://www.w3.org/2000/svg" xmlns:xlink="http://www.w3.org/1999/xlink" x="0px" y="0px"
	 viewBox="0 0 1024 415.6" style="enable-background:new 0 0 1024 415.6;" xml:space="preserve">
<style type="text/css">
	.st0{fill:#FFFFFF;}
</style>
<g>
	<path class="st0" d="M252.3,238.9c-0.1,0.7-0.3,1.5-0.4,2.2c-0.1,0.5-0.2,1-0.3,1.5c-1.5,6.7-3.9,13.3-7.2,19.7
		c-2.4,4.7-5.4,9-8.8,12.9c-2.5,2.9-5.1,5.6-7.9,8.2c-3.7,3.4-7.5,6.4-11.6,9c-7.1,4.6-14.8,8-23.3,10.1c-5,1.2-10,1.8-15,2.1
		c-0.1,0-0.2,0-0.4,0c-0.6,0-1.2,0-1.8,0.1c-1.4,0-2.8,0-4.1,0c-0.9,0-1.9,0-2.8-0.1c-12.9-0.6-24.9-4.3-36.1-10.5
		c-15.4-8.6-33.5-27.8-38-53.1c-1.1-6-1.6-11.9-1.7-18c-0.1-26.8-0.1-53.6-0.2-80.3c0-9.8-0.1-19.7-0.1-29.5V111
		c2.6,1.9,4.8,3.5,7,5.1c10.2,7.5,20.4,15,30.6,22.4c1.2,0.9,2.4,1.7,3.4,2.8c1.1,1.2,1.8,2.6,1.9,4.2c0.2,2.7,0.1,5.4,0.1,8.2v0.3
		c0.1,21.7,0.1,43.5,0.1,65.2c0,2,0,4,0.1,6c0.1,2.4,0.4,4.9,1,7.3c1.2,5,3.2,9.6,6,13.8l0,0c1.3,2,2.9,3.8,4.6,5.5
		c3,3,6.5,5.2,10.2,6.8c3.2,1.4,6.7,2.2,10.3,2.6c7.1,0.7,14,0.1,20.5-2.9c11.8-5.4,19.2-14.3,21.5-27.2c1-5.7,0.5-11.3-0.6-16.9
		c-0.3-1.2-0.8-2.3-1.3-3.4c-2.6-6-6.2-11.3-11.2-15.5c-4.2-3.6-8.8-6-13.7-7.3c-0.3-0.1-0.6-0.2-0.9-0.2c-4-1-8.1-1.2-12.5-0.8
		c-5.3,0.5-10.3,2.1-15,4.7c-0.5,0.3-1,0.6-1.6,0.8c-2.2,1-4.7-0.6-4.7-3c0,0,0,0,0,0c0.1-13.6,0.2-27.3,0.3-41c0-0.1,0-0.2,0-0.3
		c0.1-0.8,0.5-1.1,1.3-1.3c10.4-2.7,21-3.6,31.7-2.5c13.3,1.4,25.5,5.7,36.7,13.1c8.7,5.8,15.8,13.1,21.9,21.6
		c7.2,10.2,11.3,21.5,12.7,33.8c0.1,1.1,0.3,2.2,0.3,3.3c0,0.3,0.1,0.7,0.1,1C253.8,224.6,253.5,231.8,252.3,238.9z"/>
	<g>
		<path class="st0" d="M322.7,226.1l1.9-4.4c6.5,0.1,11.8,1.1,16,3c4.2,1.8,7.4,4.4,9.4,7.6c2.1,3.2,3.1,7,3.1,11.2
			c0,4.5-1,8.6-3.1,12.1c-2.1,3.5-5.2,6.3-9.3,8.4c-4.1,2-9.3,3.1-15.5,3.1h-61.9l4.2-28c1.5-10,1.5-20.1-0.1-30.1l-4.1-25.8H323
			c7.7,0,13.8,1.8,18.1,5.4c4.3,3.6,6.5,8.6,6.5,15c0,3.5-0.8,6.9-2.5,10.1c-1.6,3.2-4.3,5.9-7.9,8.1
			C333.7,224.1,328.8,225.5,322.7,226.1z M286.3,261.7l-8.9-10.8H319c3.4,0,6-0.8,7.8-2.5c1.9-1.6,2.8-3.9,2.8-6.8c0-2.9-1-5.2-3-7
			c-2-1.7-5-2.6-8.9-2.6h-34.4v-15.9h31.3c2.7,0,4.9-0.8,6.8-2.4c1.8-1.6,2.7-3.8,2.7-6.5c0-2.2-0.8-4.1-2.3-5.5
			c-1.6-1.5-3.8-2.2-6.7-2.2h-37.5l8.8-10.8L292,224L286.3,261.7z"/>
		<path class="st0" d="M390.1,268.9c-6,0-11-1.2-15.3-3.7c-4.2-2.5-7.4-5.9-9.7-10.4c-2.2-4.5-3.4-9.8-3.4-15.8v-35.6h22.8v32.4
			c0,4.7,1.2,8.3,3.5,10.8c2.3,2.5,5.6,3.8,9.9,3.8c3.2,0,5.9-0.7,8-2c2.2-1.3,3.8-3.2,5-5.6c1.2-2.5,1.8-5.4,1.8-8.8l7,3.7
			c-0.8,6.8-2.7,12.5-5.5,17.2c-2.9,4.7-6.4,8.2-10.6,10.6C399.7,267.7,395.1,268.9,390.1,268.9z M417,267.1l-4.1-25.6v-38.2h22.8
			v41.8l4.1,22H417z"/>
		<path class="st0" d="M447.4,267.1v-15.9l44-34.6l16.1,3h-59.8v-16.3h68.4v15.9l-43.9,34.5l-13.6-3h57.8v16.4H447.4z"/>
		<path class="st0" d="M525,267.1v-15.9l44-34.6l16.1,3h-59.8v-16.3h68.4v15.9l-43.9,34.5l-13.6-3h57.8v16.4H525z"/>
	</g>
	<g>
		<path class="st0" d="M689.1,183.3v9.3h-62.7l6.6-6.7v81.2h-10.5v-83.8H689.1z M627.5,221.2h59.9v9.3h-59.9V221.2z"/>
		<path class="st0" d="M706.7,194.7c-2.1,0-3.9-0.7-5.3-2c-1.5-1.3-2.2-3-2.2-5c0-1.9,0.7-3.6,2.2-4.9c1.5-1.3,3.2-2,5.3-2
			c2.2,0,4.1,0.7,5.5,2c1.4,1.3,2.1,2.9,2.1,4.9c0,2-0.7,3.7-2.1,5C710.7,194.1,708.9,194.7,706.7,194.7z M701.6,204l5.1,0.9
			l5.1-0.9v63.1h-10.3V204z"/>
		<path class="st0" d="M728.6,181.1h10.3v86h-10.3V181.1z"/>
		<path class="st0" d="M760.5,194.7c-2.1,0-3.9-0.7-5.3-2c-1.5-1.3-2.2-3-2.2-5c0-1.9,0.7-3.6,2.2-4.9c1.5-1.3,3.2-2,5.3-2
			c2.2,0,4.1,0.7,5.5,2c1.4,1.3,2.1,2.9,2.1,4.9c0,2-0.7,3.7-2.1,5C764.6,194.1,762.8,194.7,760.5,194.7z M755.5,204l5.1,0.9
			l5.1-0.9v63.1h-10.3V204z"/>
		<path class="st0" d="M779.5,204.2h10.3l3.6,21.3v41.6h-10.3v-43L779.5,204.2z M819.4,202.8c5.9,0,10.9,1.2,15,3.5
			c4.1,2.3,7.2,5.7,9.4,10.2c2.2,4.4,3.2,9.8,3.2,16v34.6h-10.3v-32.9c0-7.5-1.7-13.2-5.2-17c-3.5-3.8-8.5-5.8-15.1-5.8
			c-4.6,0-8.7,1-12.1,3.1c-3.5,2.1-6.1,5-8,8.7c-1.9,3.7-2.8,8-2.8,12.9l-4.1-2.9c0.5-6.3,2.1-11.7,4.8-16.2
			c2.7-4.5,6.2-8.1,10.6-10.6C809,204,813.9,202.8,819.4,202.8z"/>
		<path class="st0" d="M889.4,263.1c-5.7,0-10.8-1.3-15.4-3.8c-4.6-2.5-8.2-6.1-10.9-10.6c-2.7-4.5-4-9.8-4-15.8
			c0-6.1,1.3-11.4,4-15.9c2.7-4.5,6.3-8,10.9-10.5c4.6-2.5,9.7-3.7,15.4-3.7c4.2,0,8.2,0.7,11.8,2c3.6,1.3,7,3,9.9,5.2
			c3,2.2,5.5,4.6,7.6,7.3c2.1,2.7,3.7,5.4,4.9,8.1c1.2,2.7,1.7,5.3,1.7,7.7c0,3.1-0.9,6.3-2.6,9.8c-1.8,3.5-4.2,6.7-7.5,9.8
			c-3.2,3.1-7,5.6-11.4,7.6C899.5,262.1,894.7,263.1,889.4,263.1z M921.3,251.8v-11.3l0.4-1.7v-10.4l-0.4-2.2v-22h10.3v46.2
			c0,8.2-1.7,15-5,20.4c-3.3,5.4-7.8,9.5-13.5,12.2c-5.7,2.7-12.1,4-19.3,4c-5.4,0-10.5-0.8-15.1-2.3c-4.7-1.5-9.1-3.9-13.4-7v-9.1
			c4.5,3.6,9.1,6.2,13.8,7.6c4.7,1.4,9.4,2.1,14.1,2.1c9.1,0,16-2.4,20.8-7.1C918.9,266.6,921.3,260.1,921.3,251.8z M892.2,254.9
			c5.8,0,11.2-1.7,16.1-5.1c4.9-3.4,9.4-9,13.5-16.8c-4-7.9-8.5-13.5-13.5-16.9c-5-3.4-10.3-5.1-16.1-5.1c-4.8,0-9,1-12.3,2.8
			c-3.4,1.9-6,4.5-7.7,7.8c-1.8,3.3-2.6,7.1-2.6,11.4c0,4.2,0.9,7.9,2.6,11.2c1.7,3.3,4.3,5.9,7.7,7.8
			C883.2,253.9,887.3,254.9,892.2,254.9z"/>
	</g>
</g>
</svg>
