<?xml version="1.0" encoding="UTF-8"?>
<svg id="Layer_1" xmlns="http://www.w3.org/2000/svg" version="1.1" viewBox="0 0 1024 415.5661918">
  <!-- Generator: Adobe Illustrator 29.2.0, SVG Export Plug-In . SVG Version: 2.1.0 Build 108)  -->
  <g>
    <polygon points="294.8254913 95.8998904 294.8254913 170.4969908 145.6312906 319.6663014 145.6312906 245.0692011 294.8254913 95.8998904" fill="#fff"/>
    <line x1="145.6313271" y1="245.0941154" x2="145.6313271" y2="245.0692497" fill="#fff"/>
    <line x1="245.0941275" y1="245.0941154" x2="245.0941275" y2="245.0692497" fill="#fff"/>
    <path d="M344.5568915,190.1160646v56.867844c-16.5355995,0-33.0962408,6.2909432-45.7031689,18.9227614l-53.7596315,53.7596315v-74.5971003l23.498117-23.498117c20.986657-20.961767,48.4632252-31.4550196,75.9646835-31.4550196Z" fill="#fff"/>
    <path d="M195.3626909,95.8998904v74.5971003l-23.498117,23.473227c-20.986657,20.961767-48.4632252,31.4550196-75.9646835,31.4550196v-56.867844c16.5357513,0,33.0962408-6.2909432,45.7031689-18.9227614l53.7596315-53.7347415Z" fill="#fff"/>
    <path d="M171.8645739,193.9702177c-20.986657,20.961767-48.4632252,31.4550196-75.9646835,31.4550196v-56.867844c16.5357513,0,33.0962408-6.2909432,45.7031689-18.9227614l53.7596315-53.7347415v74.5971003l-23.498117,23.473227Z" fill="#fff"/>
    <polygon points="294.8254913 170.4969908 145.6312906 319.6663014 145.6312906 245.0692011 294.8254913 95.8998904 294.8254913 170.4969908" fill="#fff"/>
    <path d="M344.5568915,190.1160646v56.867844c-16.5355995,0-33.0962408,6.2909432-45.7031689,18.9227614l-53.7596315,53.7596315v-74.5971003l23.498117-23.498117c20.986657-20.961767,48.4632252-31.4550196,75.9646835-31.4550196Z" fill="#fff"/>
  </g>
  <g>
    <path d="M405.3013369,131.6913737c0-4.1887963,1.5329597-7.7864005,4.6001728-10.791519,3.0646258-3.0064121,6.7851255-4.5083246,11.1563246-4.5083246,4.3103981,0,7.9985569,1.4876824,11.06577,4.4617537,3.0646258,2.9753649,4.5988792,6.5884927,4.5988792,10.8380899,0,4.2508908-1.5342534,7.923526-4.5988792,11.0204927-3.0672131,3.0956731-6.7553719,4.6441565-11.06577,4.6441565-4.3711991,0-8.0916988-1.5329597-11.1563246-4.5988792-3.0672131-3.0659194-4.6001728-6.7540782-4.6001728-11.06577ZM408.4901518,255.7330411v-95.8998904h25.0448103v95.8998904h-25.0448103Z" fill="#fff"/>
    <path d="M456.4206925,159.8331507h25.0448103v15.4822464c3.3996778-5.7670333,7.7100759-10.2753579,12.9324881-13.5236801,5.2211185-3.2483222,10.8975972-4.8731302,17.0294361-4.8731302,9.8963223,0,17.7590473,3.3246468,23.5881752,9.9726468,5.8291279,6.648,8.7423981,17.2894571,8.7423981,31.9204904v56.9213171h-25.0448103v-53.0041846c0-15.7862511-5.707526-23.6800234-17.122578-23.6800234-5.5859241,0-10.3206352,2.20177-14.2054268,6.6040164-3.8860852,4.4022464-5.8601751,10.791519-5.9196824,19.1704052v50.9097864h-25.0448103v-95.8998904Z" fill="#fff"/>
    <path d="M607.9922468,258.5557568c-9.4125021,0-18.077282-2.2768009-26.0021016-6.8304028-7.9222324-4.5536019-14.1782604-10.7307181-18.7603223-18.5326422-4.5846492-7.8006305-6.8769737-16.3166422-6.8769737-25.5467414,0-6.8601565,1.3505569-13.4176019,4.054258-19.6710427,2.7011138-6.2534408,6.359519-11.6582557,10.9726282-16.2118576s10.111066-8.1641425,16.4861086-10.8367963c6.3750426-2.6713602,13.0812563-4.0076871,20.1264028-4.0076871,11.717763,0,21.9633672,3.7347297,30.7368127,11.2016019,8.7734454,7.4681658,14.3438459,16.9104215,16.7112014,28.3241799h-24.6800047c-1.9430426-4.8563129-4.8589002-8.7113509-8.7423981-11.5664075-3.8860852-2.8524694-8.6233836-4.2806445-14.2093077-4.2806445-7.4073649,0-13.7203129,2.6571302-18.9414314,7.9688033-5.2237058,5.3142604-7.8316778,11.7345803-7.8316778,19.2622534,0,7.4681658,2.5950356,13.8742557,7.7851068,19.2169761,5.1926585,5.3427204,11.5211302,8.0140806,18.9880024,8.0140806,5.4643223,0,10.111066-1.3660806,13.9350567-4.0982417,3.8265779-2.7321611,6.7708955-6.4655972,8.83554-11.2016019h24.8611139c-2.5484647,11.2921565-8.1654361,20.581763-16.8483269,27.867526-8.6828909,7.285763-18.8819241,10.9286445-30.5996872,10.9286445Z" fill="#fff"/>
    <path d="M713.0226264,258.5557568c-9.4099148,0-18.1083293-2.2923246-26.0900689-6.8756801-7.9869142-4.5833555-14.2843386-10.791519-18.9000351-18.6244904-4.6131092-7.8316778-6.9209574-16.3619195-6.9209574-25.5907251,0-6.7993555,1.3660806-13.3270473,4.0982417-19.5817817,2.7321611-6.2521471,6.4216136-11.6414384,11.06577-16.1652867,4.6441565-4.5225546,10.167986-8.1188652,16.5766632-10.791519,6.4035026-2.6713602,13.1278272-4.0076871,20.1703865-4.0076871,9.2909002,0,17.8806492,2.2625709,25.7744215,6.7851255,7.8937723,4.5238482,14.1472131,10.6712108,18.7603223,18.4420876,4.6156964,7.7721705,6.9235447,16.210564,6.9235447,25.3190613,0,9.2883129-2.3078482,17.8496019-6.9235447,25.6825733-4.6131092,7.8316778-10.8665499,14.0243176-18.7603223,18.5779195-7.8937723,4.5536019-16.4835213,6.8304028-25.7744215,6.8304028ZM686.3400718,207.6459704c0,7.4681658,2.5639883,13.8432084,7.6945523,19.1264215,5.1305639,5.2819194,11.368481,7.9222324,18.7163386,7.9222324,7.4073649,0,13.673742-2.6247893,18.8068932-7.8769551,5.1305639-5.2508722,7.6945523-11.6414384,7.6945523-19.1716988,0-7.3452703-2.5950356-13.6297583-7.7851068-18.8521705-5.1926585-5.2211185-11.4305756-7.8316778-18.7163386-7.8316778-7.3478576,0-13.5857747,2.5950356-18.7163386,7.7864005s-7.6945523,11.4913766-7.6945523,18.8974478Z" fill="#fff"/>
    <path d="M779.0757263,159.8331507h23.8624262v18.1238529c2.4268628-6.4358436,6.3129481-11.415052,11.6556684-14.9363316,5.3427204-3.5212796,12.0515213-5.0684694,20.1289901-4.6454501v25.5920187c-10.7475353-.9107204-18.5041822,1.1241705-23.2699405,6.1020852-4.7683456,4.9792084-7.1486375,12.8108862-7.1486375,23.496327v42.1673883h-25.2285068v-95.8998904Z" fill="#fff"/>
    <path d="M922.8168965,180.0514018l-46.8115447,54.4621134h52.0947578v21.219526h-83.6051654v-19.0345733l47.6291233-55.5539429h-50.5449808v-21.3113742h81.2378098v20.2182511Z" fill="#fff"/>
  </g>
</svg>